<mxfile host="app.diagrams.net" modified="2023-07-25T11:25:07.584Z" agent="Mozilla/5.0 (Windows NT 10.0; Win64; x64) AppleWebKit/537.36 (KHTML, like Gecko) Chrome/114.0.0.0 Safari/537.36" etag="QDGHKmGCHNjI4j9nR2xd" version="21.6.5" type="device">
  <diagram name="Página-1" id="5r7fJWz8R7R52uC5m7e9">
    <mxGraphModel dx="1050" dy="523" grid="1" gridSize="10" guides="1" tooltips="1" connect="1" arrows="1" fold="1" page="1" pageScale="1" pageWidth="827" pageHeight="1169" math="0" shadow="0">
      <root>
        <mxCell id="0" />
        <mxCell id="1" parent="0" />
        <mxCell id="o0UoRLenyrjVoCOPFUuR-1" value="Uma clínica veterinária deseja cadastrar os pets que são atendidos em seu local.&#xa;&#xa;&#xa;- a clínica contém um endereço;&#xa;- os pets deverão ter nome, data de nascimento, tipo de pet;&#xa;- os pets deverão ter raça;&#xa;- os pets deverão ter donos;&#xa;- a clínica deseja cadastrar seus veterinários e todo atendimento de pet será feito por um veterinário;" style="text;whiteSpace=wrap;" vertex="1" parent="1">
          <mxGeometry x="134" y="30" width="560" height="150" as="geometry" />
        </mxCell>
        <mxCell id="o0UoRLenyrjVoCOPFUuR-16" style="edgeStyle=orthogonalEdgeStyle;rounded=0;orthogonalLoop=1;jettySize=auto;html=1;endArrow=none;endFill=0;" edge="1" parent="1" source="o0UoRLenyrjVoCOPFUuR-2" target="o0UoRLenyrjVoCOPFUuR-7">
          <mxGeometry relative="1" as="geometry" />
        </mxCell>
        <mxCell id="o0UoRLenyrjVoCOPFUuR-2" value="Cliníca" style="rounded=0;whiteSpace=wrap;html=1;" vertex="1" parent="1">
          <mxGeometry x="120" y="260" width="120" height="60" as="geometry" />
        </mxCell>
        <mxCell id="o0UoRLenyrjVoCOPFUuR-12" style="edgeStyle=orthogonalEdgeStyle;rounded=0;orthogonalLoop=1;jettySize=auto;html=1;entryX=0.5;entryY=1;entryDx=0;entryDy=0;endArrow=none;endFill=0;" edge="1" parent="1" source="o0UoRLenyrjVoCOPFUuR-3" target="o0UoRLenyrjVoCOPFUuR-8">
          <mxGeometry relative="1" as="geometry" />
        </mxCell>
        <mxCell id="o0UoRLenyrjVoCOPFUuR-3" value="Pets" style="rounded=0;whiteSpace=wrap;html=1;" vertex="1" parent="1">
          <mxGeometry x="560" y="460" width="120" height="60" as="geometry" />
        </mxCell>
        <mxCell id="o0UoRLenyrjVoCOPFUuR-14" style="edgeStyle=orthogonalEdgeStyle;rounded=0;orthogonalLoop=1;jettySize=auto;html=1;endArrow=none;endFill=0;" edge="1" parent="1" source="o0UoRLenyrjVoCOPFUuR-4" target="o0UoRLenyrjVoCOPFUuR-6">
          <mxGeometry relative="1" as="geometry" />
        </mxCell>
        <mxCell id="o0UoRLenyrjVoCOPFUuR-4" value="Veterinário" style="rounded=0;whiteSpace=wrap;html=1;" vertex="1" parent="1">
          <mxGeometry x="560" y="260" width="120" height="60" as="geometry" />
        </mxCell>
        <mxCell id="o0UoRLenyrjVoCOPFUuR-10" style="edgeStyle=orthogonalEdgeStyle;rounded=0;orthogonalLoop=1;jettySize=auto;html=1;entryX=0;entryY=0.5;entryDx=0;entryDy=0;endArrow=none;endFill=0;" edge="1" parent="1" source="o0UoRLenyrjVoCOPFUuR-5" target="o0UoRLenyrjVoCOPFUuR-9">
          <mxGeometry relative="1" as="geometry" />
        </mxCell>
        <mxCell id="o0UoRLenyrjVoCOPFUuR-17" style="edgeStyle=orthogonalEdgeStyle;rounded=0;orthogonalLoop=1;jettySize=auto;html=1;endArrow=none;endFill=0;" edge="1" parent="1" source="o0UoRLenyrjVoCOPFUuR-5" target="o0UoRLenyrjVoCOPFUuR-7">
          <mxGeometry relative="1" as="geometry" />
        </mxCell>
        <mxCell id="o0UoRLenyrjVoCOPFUuR-5" value="Dono" style="rounded=0;whiteSpace=wrap;html=1;" vertex="1" parent="1">
          <mxGeometry x="120" y="460" width="120" height="60" as="geometry" />
        </mxCell>
        <mxCell id="o0UoRLenyrjVoCOPFUuR-15" style="edgeStyle=orthogonalEdgeStyle;rounded=0;orthogonalLoop=1;jettySize=auto;html=1;endArrow=none;endFill=0;" edge="1" parent="1" source="o0UoRLenyrjVoCOPFUuR-6" target="o0UoRLenyrjVoCOPFUuR-2">
          <mxGeometry relative="1" as="geometry" />
        </mxCell>
        <mxCell id="o0UoRLenyrjVoCOPFUuR-6" value="Contém" style="rhombus;whiteSpace=wrap;html=1;" vertex="1" parent="1">
          <mxGeometry x="360" y="250" width="80" height="80" as="geometry" />
        </mxCell>
        <mxCell id="o0UoRLenyrjVoCOPFUuR-7" value="Contata" style="rhombus;whiteSpace=wrap;html=1;" vertex="1" parent="1">
          <mxGeometry x="140" y="350" width="80" height="80" as="geometry" />
        </mxCell>
        <mxCell id="o0UoRLenyrjVoCOPFUuR-13" style="edgeStyle=orthogonalEdgeStyle;rounded=0;orthogonalLoop=1;jettySize=auto;html=1;endArrow=none;endFill=0;" edge="1" parent="1" source="o0UoRLenyrjVoCOPFUuR-8" target="o0UoRLenyrjVoCOPFUuR-4">
          <mxGeometry relative="1" as="geometry" />
        </mxCell>
        <mxCell id="o0UoRLenyrjVoCOPFUuR-8" value="Atende" style="rhombus;whiteSpace=wrap;html=1;" vertex="1" parent="1">
          <mxGeometry x="580" y="350" width="80" height="80" as="geometry" />
        </mxCell>
        <mxCell id="o0UoRLenyrjVoCOPFUuR-11" style="edgeStyle=orthogonalEdgeStyle;rounded=0;orthogonalLoop=1;jettySize=auto;html=1;exitX=1;exitY=0.5;exitDx=0;exitDy=0;endArrow=none;endFill=0;" edge="1" parent="1" source="o0UoRLenyrjVoCOPFUuR-9" target="o0UoRLenyrjVoCOPFUuR-3">
          <mxGeometry relative="1" as="geometry" />
        </mxCell>
        <mxCell id="o0UoRLenyrjVoCOPFUuR-9" value="Possui" style="rhombus;whiteSpace=wrap;html=1;" vertex="1" parent="1">
          <mxGeometry x="360" y="450" width="80" height="80" as="geometry" />
        </mxCell>
        <mxCell id="o0UoRLenyrjVoCOPFUuR-18" value="N" style="text;html=1;align=center;verticalAlign=middle;resizable=0;points=[];autosize=1;strokeColor=none;fillColor=none;fontSize=18;" vertex="1" parent="1">
          <mxGeometry x="520" y="490" width="40" height="40" as="geometry" />
        </mxCell>
        <mxCell id="o0UoRLenyrjVoCOPFUuR-19" value="N" style="text;html=1;align=center;verticalAlign=middle;resizable=0;points=[];autosize=1;strokeColor=none;fillColor=none;fontSize=18;" vertex="1" parent="1">
          <mxGeometry x="520" y="290" width="40" height="40" as="geometry" />
        </mxCell>
        <mxCell id="o0UoRLenyrjVoCOPFUuR-20" value="N" style="text;html=1;align=center;verticalAlign=middle;resizable=0;points=[];autosize=1;strokeColor=none;fillColor=none;fontSize=18;" vertex="1" parent="1">
          <mxGeometry x="180" y="420" width="40" height="40" as="geometry" />
        </mxCell>
        <mxCell id="o0UoRLenyrjVoCOPFUuR-21" value="1" style="text;html=1;align=center;verticalAlign=middle;resizable=0;points=[];autosize=1;strokeColor=none;fillColor=none;fontSize=18;" vertex="1" parent="1">
          <mxGeometry x="185" y="320" width="30" height="40" as="geometry" />
        </mxCell>
        <mxCell id="o0UoRLenyrjVoCOPFUuR-22" value="1" style="text;html=1;align=center;verticalAlign=middle;resizable=0;points=[];autosize=1;strokeColor=none;fillColor=none;fontSize=18;" vertex="1" parent="1">
          <mxGeometry x="240" y="290" width="30" height="40" as="geometry" />
        </mxCell>
        <mxCell id="o0UoRLenyrjVoCOPFUuR-23" value="1" style="text;html=1;align=center;verticalAlign=middle;resizable=0;points=[];autosize=1;strokeColor=none;fillColor=none;fontSize=18;" vertex="1" parent="1">
          <mxGeometry x="590" y="320" width="30" height="40" as="geometry" />
        </mxCell>
        <mxCell id="o0UoRLenyrjVoCOPFUuR-24" value="N" style="text;html=1;align=center;verticalAlign=middle;resizable=0;points=[];autosize=1;strokeColor=none;fillColor=none;fontSize=18;" vertex="1" parent="1">
          <mxGeometry x="585" y="420" width="40" height="40" as="geometry" />
        </mxCell>
        <mxCell id="o0UoRLenyrjVoCOPFUuR-25" value="1" style="text;html=1;align=center;verticalAlign=middle;resizable=0;points=[];autosize=1;strokeColor=none;fillColor=none;fontSize=18;" vertex="1" parent="1">
          <mxGeometry x="240" y="490" width="30" height="40" as="geometry" />
        </mxCell>
      </root>
    </mxGraphModel>
  </diagram>
</mxfile>
